<?xml version="1.0" standalone="no"?><!DOCTYPE svg PUBLIC "-//W3C//DTD SVG 1.1//EN" "http://www.w3.org/Graphics/SVG/1.1/DTD/svg11.dtd"><svg t="1663663893050" class="icon" viewBox="0 0 1024 1024" version="1.1" xmlns="http://www.w3.org/2000/svg" p-id="2374" xmlns:xlink="http://www.w3.org/1999/xlink" width="200" height="200"><path d="M955.860087 881.84128l-31.91692-45.585221c-69.891813-101.759615-132.189671-165.578106-186.891528-191.456496-54.701856-25.832342-126.879736-38.747489-216.532615-38.747489l0 198.294229L69.230758 496.64836l451.28929-307.698964 0 198.294229c151.143349 1.518586 261.499759 37.607526 331.012949 108.264772S955.860087 675.949003 955.860087 824.859497L955.860087 881.84128zM484.051461 569.583486l18.234293 0c48.624441 0 85.470627 1.139963 110.540605 3.418866 25.071002 2.278903 56.598043 9.116635 94.593402 20.512173 37.986149 11.396561 73.694419 31.577183 107.11867 60.400648 33.43346 28.869514 68.384483 66.904783 104.85307 113.962541-7.605212-121.56059-44.451398-209.311143-110.551862-263.253706-66.090231-53.894468-168.277588-80.912821-306.553884-80.912821l-18.234293 0L484.051461 257.326716 133.045155 496.64836l351.007329 239.321644L484.052484 569.583486z" p-id="2375" fill="#ffffff"></path></svg>