<?xml version="1.0" standalone="no"?><!DOCTYPE svg PUBLIC "-//W3C//DTD SVG 1.1//EN" "http://www.w3.org/Graphics/SVG/1.1/DTD/svg11.dtd"><svg t="1663508964224" class="icon" viewBox="0 0 1026 1024" version="1.1" xmlns="http://www.w3.org/2000/svg" p-id="1989" xmlns:xlink="http://www.w3.org/1999/xlink" width="200.390625" height="200"><path d="M887.875449 240.568463H136.124551c-45.170459 0-81.756487 36.586028-81.756487 81.756487v379.3501c0 45.170459 36.586028 81.756487 81.756487 81.756487h751.955289c45.170459 0 81.756487-36.586028 81.756487-81.756487V322.32495c-0.204391-45.170459-36.790419-81.756487-81.960878-81.756487z m-414.914172 182.725749c0-7.562475 6.131737-13.898603 13.898603-13.898603h55.594411c7.562475 0 13.898603 6.131737 13.898603 13.898603v55.594411c0 7.562475-6.131737 13.898603-13.898603 13.898603h-55.594411c-7.562475 0-13.898603-6.131737-13.898603-13.898603v-55.594411z m-166.374451 0c0-7.562475 6.131737-13.898603 13.898603-13.898603H376.07984c7.562475 0 13.898603 6.131737 13.898603 13.898603v55.594411c0 7.562475-6.131737 13.898603-13.898603 13.898603h-55.594411c-7.562475 0-13.898603-6.131737-13.898603-13.898603v-55.594411z m-81.756487 220.129341c0 7.562475-6.131737 13.898603-13.898602 13.898603h-55.185629c-7.562475 0-13.898603-6.131737-13.898603-13.898603v-55.185629c0-7.562475 6.131737-13.898603 13.898603-13.898603h55.185629c7.562475 0 13.898603 6.131737 13.898602 13.898603v55.185629z m0.204392-164.53493c0 7.562475-6.131737 13.898603-13.898603 13.898603H155.541717c-7.562475 0-13.898603-6.131737-13.898603-13.898603v-55.594411c0-7.562475 6.131737-13.898603 13.898603-13.898603h55.594411c7.562475 0 13.898603 6.131737 13.898603 13.898603v55.594411z m495.853093 164.739321c0 7.562475-6.131737 13.898603-13.898602 13.898603H320.281038c-7.562475 0-13.898603-6.131737-13.898603-13.898603v-55.594411c0-7.562475 6.131737-13.898603 13.898603-13.898603H707.193613c7.562475 0 13.898603 6.131737 13.898603 13.898603v55.594411z m0-164.739321c0 7.562475-6.131737 13.898603-13.898602 13.898603h-55.594412c-7.562475 0-13.898603-6.131737-13.898602-13.898603v-55.594411c0-7.562475 6.131737-13.898603 13.898602-13.898603H707.193613c7.562475 0 13.898603 6.131737 13.898603 13.898603v55.594411z m167.396408 164.739321c0 7.562475-6.131737 13.898603-13.898603 13.898603h-55.594411c-7.562475 0-13.898603-6.131737-13.898603-13.898603v-55.594411c0-7.562475 6.131737-13.898603 13.898603-13.898603h55.594411c7.562475 0 13.898603 6.131737 13.898603 13.898603v55.594411z m0-164.739321c0 7.562475-6.131737 13.898603-13.898603 13.898603h-55.594411c-7.562475 0-13.898603-6.131737-13.898603-13.898603v-55.594411c0-7.562475 6.131737-13.898603 13.898603-13.898603h55.594411c7.562475 0 13.898603 6.131737 13.898603 13.898603v55.594411z" p-id="1990" fill="#ffffff"></path></svg>