<?xml version="1.0" standalone="no"?><!DOCTYPE svg PUBLIC "-//W3C//DTD SVG 1.1//EN" "http://www.w3.org/Graphics/SVG/1.1/DTD/svg11.dtd"><svg t="1667225434675" class="icon" viewBox="0 0 1024 1024" version="1.1" xmlns="http://www.w3.org/2000/svg" p-id="5471" xmlns:xlink="http://www.w3.org/1999/xlink" width="200" height="200"><path d="M672.956416 871.064576l176.67584 0c48.72704 0 88.231936-39.5008 88.231936-88.231936 0-17.8944-5.327872-34.540544-14.478336-48.44544l-20.570112-35.204096c-32.789504-47.8208-80.41984-134.765568-85.219328-271.644672-6.877184-195.913728-89.36448-295.589888-202.789888-312.774656l-0.789504-2.02752c0-51.443712-41.704448-93.142016-93.147136-93.142016l-12.250112 0c-51.443712 0-93.147136 41.699328-93.147136 93.142016l-0.789504 2.02752c-113.421312 17.184768-195.908608 116.861952-202.784768 312.774656-4.804608 136.879104-52.429824 223.822848-85.224448 271.644672l-20.564992 35.204096c-9.155584 13.904896-14.483456 30.55104-14.483456 48.44544 0 48.73216 39.50592 88.231936 88.237056 88.231936l178.67776 0c51.091456 0 67.400704 47.473664 67.400704 47.473664 17.57184 35.15904 53.89312 59.305984 95.879168 59.305984 23.3472 0 44.9536-7.465984 62.55616-20.143104 14.749696-10.625024 26.677248-24.911872 34.464768-41.5232C618.841088 916.179968 628.942848 871.975936 672.956416 871.064576z" p-id="5472" fill="#ffffff"></path></svg>